<?xml version="1.0" standalone="no"?><svg xmlns="http://www.w3.org/2000/svg" viewBox="0 0 1440 320"><path fill="#0099ff" fill-opacity="1" d="M0,128L21.8,112C43.6,96,87,64,131,90.7C174.5,117,218,203,262,213.3C305.5,224,349,160,393,144C436.4,128,480,160,524,144C567.3,128,611,64,655,69.3C698.2,75,742,149,785,202.7C829.1,256,873,288,916,256C960,224,1004,128,1047,122.7C1090.9,117,1135,203,1178,213.3C1221.8,224,1265,160,1309,154.7C1352.7,149,1396,203,1418,229.3L1440,256L1440,320L1418.2,320C1396.4,320,1353,320,1309,320C1265.5,320,1222,320,1178,320C1134.5,320,1091,320,1047,320C1003.6,320,960,320,916,320C872.7,320,829,320,785,320C741.8,320,698,320,655,320C610.9,320,567,320,524,320C480,320,436,320,393,320C349.1,320,305,320,262,320C218.2,320,175,320,131,320C87.3,320,44,320,22,320L0,320Z"></path></svg>